<?xml version="1.0" encoding="UTF-8"?>
<svg width="142px" height="26px" viewBox="0 0 142 26" version="1.1" xmlns="http://www.w3.org/2000/svg" xmlns:xlink="http://www.w3.org/1999/xlink">
    <!-- Generator: Sketch 42 (36781) - http://www.bohemiancoding.com/sketch -->
    <title>logo_ivanti_cloud_white_sm</title>
    <desc>Created with Sketch.</desc>
    <defs></defs>
    <g id="Page-1" stroke="none" stroke-width="1" fill="none" fill-rule="evenodd">
        <g id="logo_ivanti_cloud_white_sm" fill="#FFFFFF">
            <text id="CLOUD" font-family="HelveticaNeue-Thin, Helvetica Neue" font-size="20" font-weight="300" letter-spacing="1">
                <tspan x="73" y="25">CLOUD</tspan>
            </text>
            <polygon id="Shape" fill-rule="nonzero" points="10.5555556 10.5228758 13.7254902 20.0490196 16.9444444 10.5228758 20.9150327 10.5228758 15.8660131 24.5424837 11.3071895 24.5424837 6.17647059 10.5228758"></polygon>
            <path d="M30.5228758,24.5424837 C30.375817,23.6764706 30.375817,23.0392157 30.375817,22.630719 C28.8235294,24.8856209 26.9607843,24.8856209 26.1764706,24.8856209 C24.1503268,24.8856209 23.2352941,24.2973856 22.6797386,23.7745098 C21.8464052,22.9411765 21.4542484,21.7973856 21.4542484,20.6862745 C21.4542484,19.5751634 21.8464052,17.5163399 24.4281046,16.3235294 C26.1437908,15.5392157 28.627451,15.5392157 29.9836601,15.5392157 C29.9836601,14.624183 29.9509804,14.1830065 29.7875817,13.6764706 C29.4281046,12.6470588 28.3496732,12.5163399 27.9575163,12.5163399 C27.369281,12.5163399 26.7647059,12.7614379 26.4052288,13.3006536 C26.0947712,13.7745098 26.0947712,14.2156863 26.0947712,14.5424837 L22.0751634,14.5424837 C22.1078431,13.7908497 22.1895425,12.2875817 23.6601307,11.2418301 C24.9346405,10.3267974 26.5686275,10.0980392 27.9084967,10.0980392 C29.0686275,10.0980392 31.5196078,10.2941176 32.9084967,11.8954248 C33.8562092,13.0392157 33.872549,14.7058824 33.872549,15.3431373 L33.9052288,20.9803922 C33.9052288,22.1732026 33.9869281,23.3660131 34.2320261,24.5424837 L30.5228758,24.5424837 L30.5228758,24.5424837 Z M25.4738562,20.2124183 C25.4738562,21.1601307 26.1111111,22.2058824 27.4673203,22.2058824 C28.2189542,22.2058824 28.8235294,21.8464052 29.2156863,21.4052288 C29.9346405,20.5228758 30,19.4281046 30,17.9411765 C27.369281,17.7124183 25.4738562,18.5457516 25.4738562,20.2124183 Z" id="Shape" fill-rule="nonzero"></path>
            <path d="M36.4379085,13.0228758 C36.4379085,12.9738562 36.4379085,11.4379085 36.3562092,10.4738562 L40.2941176,10.4738562 L40.4084967,12.5816993 C40.8006536,11.9444444 41.9117647,10.130719 44.9673203,10.130719 C47.7124183,10.130719 48.8888889,11.7973856 49.248366,12.7614379 C49.5588235,13.627451 49.6405229,14.3464052 49.6405229,16.9607843 L49.6405229,24.5424837 L45.4248366,24.5424837 L45.4248366,15.8169935 C45.4248366,15.2287582 45.4248366,14.7385621 45.1960784,14.2973856 C44.8856209,13.6928105 44.248366,13.1045752 43.2026144,13.1045752 C42.3202614,13.1045752 41.503268,13.5130719 41.0620915,14.1830065 C40.8169935,14.5424837 40.5555556,15.245098 40.5555556,16.3235294 L40.5555556,24.5424837 L36.4379085,24.5424837 L36.4379085,13.0228758 Z" id="Shape" fill-rule="nonzero"></path>
            <path d="M54.1013072,8.07189542 L54.1013072,10.6045752 L51.4052288,10.6045752 L51.4052288,13.3333333 L54.1013072,13.3333333 L54.1013072,21.0294118 C54.1013072,22.1895425 54.1013072,24.8039216 58.2352941,24.8039216 C58.9052288,24.8039216 60.0980392,24.7222222 61.4215686,24.3627451 L61.4215686,21.6666667 C60.9150327,21.7156863 60.6372549,21.748366 60.0326797,21.748366 C58.2026144,21.748366 58.2026144,20.9477124 58.1699346,19.6732026 L58.1699346,13.3496732 L61.503268,13.3496732 L61.503268,10.620915 L58.1699346,10.620915 L58.1699346,6.96078431 L54.1013072,8.07189542 Z" id="Shape" fill-rule="nonzero"></path>
            <polygon id="Shape" fill-rule="nonzero" points="0.0816993464 10.4901961 4.19934641 10.4901961 4.19934641 24.5424837 0.0816993464 24.5424837"></polygon>
            <polygon id="Shape" fill-rule="nonzero" points="63.9869281 10.4901961 68.1045752 10.4901961 68.1045752 24.5424837 63.9869281 24.5424837"></polygon>
            <polygon id="Shape" fill-rule="nonzero" points="68.0882353 2.79411765 68.0882353 6.89542484 70.8333333 6.89542484 70.8333333 0.0490196078 63.9869281 0.0490196078 63.9869281 2.79411765"></polygon>
            <rect id="Rectangle-path" fill-rule="nonzero" x="63.9869281" y="4.16666667" width="2.74509804" height="2.74509804"></rect>
            <rect id="Rectangle-path" fill-rule="nonzero" x="0.0816993464" y="2.79411765" width="4.10130719" height="4.10130719"></rect>
        </g>
    </g>
</svg>