<?xml version="1.0" encoding="UTF-8"?>
<svg width="203px" height="35px" viewBox="0 0 203 35" version="1.1" xmlns="http://www.w3.org/2000/svg" xmlns:xlink="http://www.w3.org/1999/xlink">
    <!-- Generator: Sketch 43.1 (39012) - http://www.bohemiancoding.com/sketch -->
    <title>logo-ivanti cloud dark small</title>
    <desc>Created with Sketch.</desc>
    <defs></defs>
    <g id="Assets" stroke="none" stroke-width="1" fill="none" fill-rule="evenodd">
        <g id="Logos" transform="translate(0.000000, -420.000000)">
            <g id="logo-ivanti-cloud-dark-small" transform="translate(0.000000, 420.000000)">
                <g>
                    <polygon id="Shape" fill="#111111" fill-rule="nonzero" points="14.6628571 14.6472829 19.0902857 27.9713052 23.5954286 14.6495683 29.1474286 14.6495683 22.0777143 34.2630777 15.712 34.2630777 8.52571429 14.6472829"></polygon>
                    <path d="M42.592,34.2630777 C42.4529698,33.3764799 42.3902637,32.4795909 42.4045714,31.5822753 C40.2285714,34.7293042 37.6274286,34.7293042 36.5394286,34.7293042 C33.7028571,34.7293042 32.4251429,33.9134078 31.6457143,33.1752158 C30.528224,32.0210043 29.9134814,30.4711952 29.936,28.864906 C29.936,27.3108177 30.48,24.4380396 34.0914286,22.7673946 C36.5005714,21.6795328 39.9565714,21.6795328 41.8628571,21.6795328 C41.8628571,20.3974099 41.824,19.7757745 41.5908571,19.0764347 C41.0857143,17.638903 39.5702857,17.444642 39.0262857,17.444642 C38.1662241,17.4276562 37.3527323,17.8343504 36.8502857,18.5325038 C36.5293725,19.0526451 36.3776448,19.6594791 36.416,20.2694261 L30.784,20.2694261 C30.8228571,19.2204165 30.9394286,17.1223972 32.9988571,15.6482986 C34.7862857,14.3661757 37.0765714,14.0485018 38.9417143,14.0485018 C40.5737143,14.0485018 43.9908571,14.3204672 45.9337143,16.5624683 C47.2548571,18.1622651 47.2937143,20.484256 47.2937143,21.3778568 L47.3325714,29.2625698 C47.3095235,30.9309728 47.4627542,32.5971448 47.7897143,34.2333672 L42.592,34.2630777 Z M35.5222857,28.2044185 C35.5222857,29.5253936 36.416,31.0017776 38.32,31.0017776 C39.2615724,30.9957519 40.1543977,30.5823204 40.768,29.8682072 C41.7782857,28.6249365 41.856,27.1097004 41.856,25.0139665 C38.1645714,24.7077197 35.5222857,25.8732859 35.5222857,28.2044185 Z" id="Shape" fill="#111111" fill-rule="nonzero"></path>
                    <path d="M50.8617143,18.1439817 C50.8617143,18.0662773 50.8617143,15.9294058 50.7451429,14.5695785 L56.2605714,14.5695785 L56.416,17.5223464 C56.96,16.6287456 58.5142857,14.0942103 62.7862857,14.0942103 C66.6308571,14.0942103 68.272,16.4253428 68.768,17.7851701 C69.1954286,18.9895886 69.312,19.9997461 69.312,23.6495683 L69.312,34.253936 L63.4331429,34.253936 L63.4331429,22.0680549 C63.4331429,21.2521585 63.4331429,20.5528187 63.1222857,19.9311833 C62.6009648,18.8712411 61.505092,18.2168446 60.3245714,18.2605383 C59.1374606,18.2374654 58.0163554,18.8052258 57.3325714,19.7757745 C56.9828571,20.2808532 56.6331429,21.2521585 56.6331429,22.7673946 L56.6331429,34.2630777 L50.8617143,34.2630777 L50.8617143,18.1439817 Z" id="Shape" fill="#111111" fill-rule="nonzero"></path>
                    <path d="M75.5771429,11.2237176 L75.5771429,14.7661249 L71.808,14.7661249 L71.808,18.5736414 L75.5771429,18.5736414 L75.5771429,29.333418 C75.5771429,30.9652108 75.5771429,34.615033 81.3645714,34.615033 C82.8749018,34.5941337 84.3764537,34.3814088 85.8331429,33.9819705 L85.8331429,30.2224479 C85.1888635,30.3047429 84.5397841,30.3436827 83.8902857,30.3390046 C81.3257143,30.3390046 81.3257143,29.2122905 81.2868571,27.4250889 L81.2868571,18.571356 L85.9474286,18.571356 L85.9474286,14.7638395 L81.2868571,14.7638395 L81.2868571,9.65363128 L75.5771429,11.2237176 Z" id="Shape" fill="#111111" fill-rule="nonzero"></path>
                    <polygon id="Shape" fill="#111111" fill-rule="nonzero" points="0 14.6107161 5.75085714 14.6107161 5.75085714 34.2653631 0 34.2653631"></polygon>
                    <polygon id="Shape" fill="#111111" fill-rule="nonzero" points="89.3988571 14.6107161 95.1474286 14.6107161 95.1474286 34.2653631 89.3988571 34.2653631"></polygon>
                    <polygon id="Shape" fill="#111111" fill-rule="nonzero" points="95.1474286 3.83265617 95.1474286 9.58049771 98.9805714 9.58049771 98.9805714 0 89.3988571 0 89.3988571 3.83265617"></polygon>
                    <rect id="Rectangle-path" fill="#111111" fill-rule="nonzero" x="89.3988571" y="5.75012697" width="3.83314286" height="3.83265617"></rect>
                    <rect id="Rectangle-path" fill="#111111" fill-rule="nonzero" x="0" y="3.83265617" width="5.74857143" height="5.74784154"></rect>
                    <text id="CLOUD" font-family="HelveticaNeue-Light, Helvetica Neue" font-size="28" font-weight="300" letter-spacing="0.194444463" fill="#666666">
                        <tspan x="109" y="34">CLOUD</tspan>
                    </text>
                </g>
            </g>
        </g>
    </g>
</svg>