<?xml version="1.0" encoding="UTF-8"?>
<svg width="71px" height="25px" viewBox="0 0 71 25" version="1.1" xmlns="http://www.w3.org/2000/svg" xmlns:xlink="http://www.w3.org/1999/xlink">
    <!-- Generator: Sketch 42 (36781) - http://www.bohemiancoding.com/sketch -->
    <title>logo_ivanti_white_sm</title>
    <desc>Created with Sketch.</desc>
    <defs></defs>
    <g id="Page-1" stroke="none" stroke-width="1" fill="none" fill-rule="evenodd">
        <g id="logo_ivanti_white_sm" fill-rule="nonzero" fill="#FFFFFF">
            <g id="Page-1">
                <g id="Ivanti_rgb">
                    <g id="Group">
                        <g id="Shape" transform="translate(0.000000, 6.862745)">
                            <g id="Group">
                                <g transform="translate(6.045752, 3.104575)" id="Shape">
                                    <polygon style="mix-blend-mode: overlay;" points="4.50980392 0.555555556 7.67973856 10.0816993 10.8986928 0.555555556 14.869281 0.555555556 9.82026144 14.5751634 5.26143791 14.5751634 0.130718954 0.555555556"></polygon>
                                    <path d="M24.4771242,14.5751634 C24.3300654,13.7091503 24.3300654,13.0718954 24.3300654,12.6633987 C22.7777778,14.9183007 20.9150327,14.9183007 20.130719,14.9183007 C18.1045752,14.9183007 17.1895425,14.3300654 16.6339869,13.8071895 C15.8006536,12.9738562 15.4084967,11.8300654 15.4084967,10.7189542 C15.4084967,9.60784314 15.8006536,7.54901961 18.3823529,6.35620915 C20.0980392,5.57189542 22.5816993,5.57189542 23.9379085,5.57189542 C23.9379085,4.65686275 23.9052288,4.21568627 23.7418301,3.70915033 C23.3823529,2.67973856 22.3039216,2.54901961 21.9117647,2.54901961 C21.3235294,2.54901961 20.7189542,2.79411765 20.3594771,3.33333333 C20.0490196,3.80718954 20.0490196,4.24836601 20.0490196,4.5751634 L16.0294118,4.5751634 C16.0620915,3.82352941 16.1437908,2.32026144 17.6143791,1.2745098 C18.8888889,0.359477124 20.5228758,0.130718954 21.8627451,0.130718954 C23.0228758,0.130718954 25.4738562,0.326797386 26.8627451,1.92810458 C27.8104575,3.07189542 27.8267974,4.73856209 27.8267974,5.37581699 L27.8594771,11.0130719 C27.8594771,12.2058824 27.9411765,13.3986928 28.1862745,14.5751634 L24.4771242,14.5751634 L24.4771242,14.5751634 Z M19.4281046,10.245098 C19.4281046,11.1928105 20.0653595,12.2385621 21.4215686,12.2385621 C22.1732026,12.2385621 22.7777778,11.879085 23.1699346,11.4379085 C23.8888889,10.5555556 23.9542484,9.46078431 23.9542484,7.97385621 C21.3235294,7.74509804 19.4281046,8.57843137 19.4281046,10.245098 Z" style="mix-blend-mode: overlay;"></path>
                                    <path d="M30.3921569,3.05555556 C30.3921569,3.00653595 30.3921569,1.47058824 30.3104575,0.506535948 L34.248366,0.506535948 L34.3627451,2.61437908 C34.754902,1.97712418 35.8660131,0.163398693 38.9215686,0.163398693 C41.6666667,0.163398693 42.8431373,1.83006536 43.2026144,2.79411765 C43.5130719,3.66013072 43.5947712,4.37908497 43.5947712,6.99346405 L43.5947712,14.5751634 L39.379085,14.5751634 L39.379085,5.8496732 C39.379085,5.26143791 39.379085,4.77124183 39.1503268,4.33006536 C38.8398693,3.7254902 38.2026144,3.1372549 37.1568627,3.1372549 C36.2745098,3.1372549 35.4575163,3.54575163 35.0163399,4.21568627 C34.7712418,4.5751634 34.5098039,5.27777778 34.5098039,6.35620915 L34.5098039,14.5751634 L30.3921569,14.5751634 L30.3921569,3.05555556 Z" style="mix-blend-mode: overlay;"></path>
                                </g>
                                <path d="M54.1013072,1.20915033 L54.1013072,3.74183007 L51.4052288,3.74183007 L51.4052288,6.47058824 L54.1013072,6.47058824 L54.1013072,14.1666667 C54.1013072,15.3267974 54.1013072,17.9411765 58.2352941,17.9411765 C58.9052288,17.9411765 60.0980392,17.8594771 61.4215686,17.5 L61.4215686,14.8039216 C60.9150327,14.8529412 60.6372549,14.8856209 60.0326797,14.8856209 C58.2026144,14.8856209 58.2026144,14.0849673 58.1699346,12.8104575 L58.1699346,6.4869281 L61.503268,6.4869281 L61.503268,3.75816993 L58.1699346,3.75816993 L58.1699346,0.0980392157 L54.1013072,1.20915033 Z" id="Shape" style="mix-blend-mode: overlay;"></path>
                                <polygon id="Shape" style="mix-blend-mode: overlay;" points="0.0816993464 3.62745098 4.19934641 3.62745098 4.19934641 17.6797386 0.0816993464 17.6797386"></polygon>
                            </g>
                            <polygon style="mix-blend-mode: overlay;" points="63.9869281 3.62745098 68.1045752 3.62745098 68.1045752 17.6797386 63.9869281 17.6797386"></polygon>
                        </g>
                        <g transform="translate(63.888889, 0.000000)">
                            <polygon id="Shape" style="mix-blend-mode: overlay;" points="4.19934641 2.79411765 4.19934641 6.89542484 6.94444444 6.89542484 6.94444444 0.0490196078 0.0980392157 0.0490196078 0.0980392157 2.79411765"></polygon>
                            <rect id="Rectangle-path" style="mix-blend-mode: overlay;" x="0.0980392157" y="4.16666667" width="2.74509804" height="2.74509804"></rect>
                        </g>
                        <rect id="Rectangle-path" style="mix-blend-mode: overlay;" x="0.0816993464" y="2.79411765" width="4.10130719" height="4.10130719"></rect>
                    </g>
                </g>
            </g>
        </g>
    </g>
</svg>