<?xml version="1.0" encoding="UTF-8"?>
<svg width="434px" height="153px" viewBox="0 0 434 153" version="1.1" xmlns="http://www.w3.org/2000/svg" xmlns:xlink="http://www.w3.org/1999/xlink">
    <!-- Generator: Sketch 42 (36781) - http://www.bohemiancoding.com/sketch -->
    <title>logo_ivanti_white</title>
    <desc>Created with Sketch.</desc>
    <defs></defs>
    <g id="Page-1" stroke="none" stroke-width="1" fill="none" fill-rule="evenodd">
        <g id="logo_ivanti_white" fill-rule="nonzero" fill="#FFFFFF">
            <g id="Page-1">
                <g id="Ivanti_rgb">
                    <g id="Group">
                        <g id="Shape" transform="translate(0.000000, 42.000000)">
                            <g id="Group">
                                <g transform="translate(37.000000, 19.000000)" id="Shape">
                                    <polygon style="mix-blend-mode: overlay;" points="27.6 3.4 47 61.7 66.7 3.4 91 3.4 60.1 89.2 32.2 89.2 0.8 3.4"></polygon>
                                    <path d="M149.8,89.2 C148.9,83.9 148.9,80 148.9,77.5 C139.4,91.3 128,91.3 123.2,91.3 C110.8,91.3 105.2,87.7 101.8,84.5 C96.7,79.4 94.3,72.4 94.3,65.6 C94.3,58.8 96.7,46.2 112.5,38.9 C123,34.1 138.2,34.1 146.5,34.1 C146.5,28.5 146.3,25.8 145.3,22.7 C143.1,16.4 136.5,15.6 134.1,15.6 C130.5,15.6 126.8,17.1 124.6,20.4 C122.7,23.3 122.7,26 122.7,28 L98.1,28 C98.3,23.4 98.8,14.2 107.8,7.8 C115.6,2.2 125.6,0.8 133.8,0.8 C140.9,0.8 155.9,2 164.4,11.8 C170.2,18.8 170.3,29 170.3,32.9 L170.5,67.4 C170.5,74.7 171,82 172.5,89.2 L149.8,89.2 L149.8,89.2 Z M118.9,62.7 C118.9,68.5 122.8,74.9 131.1,74.9 C135.7,74.9 139.4,72.7 141.8,70 C146.2,64.6 146.6,57.9 146.6,48.8 C130.5,47.4 118.9,52.5 118.9,62.7 Z" style="mix-blend-mode: overlay;"></path>
                                    <path d="M186,18.7 C186,18.4 186,9 185.5,3.1 L209.6,3.1 L210.3,16 C212.7,12.1 219.5,1 238.2,1 C255,1 262.2,11.2 264.4,17.1 C266.3,22.4 266.8,26.8 266.8,42.8 L266.8,89.2 L241,89.2 L241,35.8 C241,32.2 241,29.2 239.6,26.5 C237.7,22.8 233.8,19.2 227.4,19.2 C222,19.2 217,21.7 214.3,25.8 C212.8,28 211.2,32.3 211.2,38.9 L211.2,89.2 L186,89.2 L186,18.7 Z" style="mix-blend-mode: overlay;"></path>
                                </g>
                                <path d="M331.1,7.4 L331.1,22.9 L314.6,22.9 L314.6,39.6 L331.1,39.6 L331.1,86.7 C331.1,93.8 331.1,109.8 356.4,109.8 C360.5,109.8 367.8,109.3 375.9,107.1 L375.9,90.6 C372.8,90.9 371.1,91.1 367.4,91.1 C356.2,91.1 356.2,86.2 356,78.4 L356,39.7 L376.4,39.7 L376.4,23 L356,23 L356,0.6 L331.1,7.4 Z" id="Shape" style="mix-blend-mode: overlay;"></path>
                                <polygon id="Shape" style="mix-blend-mode: overlay;" points="0.5 22.2 25.7 22.2 25.7 108.2 0.5 108.2"></polygon>
                            </g>
                            <polygon style="mix-blend-mode: overlay;" points="391.6 22.2 416.8 22.2 416.8 108.2 391.6 108.2"></polygon>
                        </g>
                        <g transform="translate(391.000000, 0.000000)">
                            <polygon id="Shape" style="mix-blend-mode: overlay;" points="25.7 17.1 25.7 42.2 42.5 42.2 42.5 0.3 0.6 0.3 0.6 17.1"></polygon>
                            <rect id="Rectangle-path" style="mix-blend-mode: overlay;" x="0.6" y="25.5" width="16.8" height="16.8"></rect>
                        </g>
                        <rect id="Rectangle-path" style="mix-blend-mode: overlay;" x="0.5" y="17.1" width="25.1" height="25.1"></rect>
                    </g>
                </g>
            </g>
        </g>
    </g>
</svg>